<svg xmlns="http://www.w3.org/2000/svg" viewBox="0 0 512 512">
  <defs>
    <linearGradient id="cloudGradient" x1="99.45" y1="30.68" x2="232.64" y2="261.37" gradientUnits="userSpaceOnUse">
      <stop offset="0" stop-color="#f3f7fe" />
      <stop offset="0.45" stop-color="#f3f7fe" />
      <stop offset="1" stop-color="#deeafb" />
    </linearGradient>

    <linearGradient id="snowGradient1" x1="11.38" y1="5.93" x2="32.82" y2="43.07" gradientUnits="userSpaceOnUse">
      <stop offset="0" stop-color="#86c3db" />
      <stop offset="0.45" stop-color="#86c3db" />
      <stop offset="1" stop-color="#5eafcf" />
    </linearGradient>

    <linearGradient id="snowGradient2" x1="67.38" y1="5.93" x2="88.82" y2="43.07" gradientUnits="userSpaceOnUse" href="#snowGradient1" />

    <linearGradient id="snowGradient3" x1="123.38" y1="5.93" x2="144.82" y2="43.07" gradientUnits="userSpaceOnUse" href="#snowGradient1" />

    <linearGradient id="dropGradient1" x1="1381.32" y1="-1144.67" x2="1399.47" y2="-1097.39" gradientTransform="translate(-1189.41 1353.24) rotate(-9)" gradientUnits="userSpaceOnUse">
      <stop offset="0" stop-color="#0b65ed" />
      <stop offset="0.45" stop-color="#0a5ad4" />
      <stop offset="1" stop-color="#0950bc" />
    </linearGradient>

    <linearGradient id="dropGradient2" x1="1436.71" y1="-1137" x2="1454.86" y2="-1089.72" gradientTransform="translate(-1189.32 1354.33) rotate(-9)" href="#dropGradient1" />

    <linearGradient id="dropGradient3" x1="1492.12" y1="-1129.34" x2="1510.27" y2="-1082.06" gradientTransform="translate(-1189.24 1355.43) rotate(-9)" href="#dropGradient1" />
  </defs>

  <g transform="translate(81 145)">
    <path d="M291,107c-.85,0-1.68.09-2.53.13A83.9,83.9,0,0,0,135.6,42.92,55.91,55.91,0,0,0,51,91a56.56,56.56,0,0,0,.8,9.08A60,60,0,0,0,63,219c1.35,0,2.67-.11,4-.2v.2H291a56,56,0,0,0,0-112 Z" fill="url(#cloudGradient)" stroke="#e6effc" stroke-width="6" stroke-miterlimit="10" />
  </g>

  <g transform="translate(177.9 337.5)">
    <g>
      <path d="M41.67,31l-5.78-3.3a13.74,13.74,0,0,0,0-6.47L41.67,18a4,4,0,0,0,1.49-5.46A4.08,4.08,0,0,0,37.62,11l-5.79,3.3a13.61,13.61,0,0,0-2.64-2,13.84,13.84,0,0,0-3-1.28V4.5a4.05,4.05,0,0,0-8.1,0v6.6a14.25,14.25,0,0,0-5.69,3.23L6.58,11A4.08,4.08,0,0,0,1,12.5,4,4,0,0,0,2.53,18l5.78,3.3a13.74,13.74,0,0,0,0,6.47L2.53,31A4,4,0,0,0,1,36.5a4.08,4.08,0,0,0,3.52,2,4,4,0,0,0,2-.54l5.79-3.3a13.61,13.61,0,0,0,2.64,2,13.8,13.8,0,0,0,3,1.27V44.5a4.05,4.05,0,0,0,8.1,0V37.89a14.22,14.22,0,0,0,5.68-3.23L37.62,38a4,4,0,0,0,2,.54,4.08,4.08,0,0,0,3.52-2A4,4,0,0,0,41.67,31ZM19.06,29.7a6,6,0,0,1-2.22-8.2,6.1,6.1,0,0,1,5.27-3,6.16,6.16,0,0,1,3,.8,6,6,0,0,1,2.22,8.2A6.12,6.12,0,0,1,19.06,29.7 Z" stroke="#86c3db" stroke-miterlimit="10" fill="url(#snowGradient1)" opacity="0">
        <animateTransform attributeName="transform" type="rotate" values="0 24 24; 360 24 24" dur="6s" repeatCount="indefinite" />
        <animate id="t1" attributeName="opacity" values="0; 1; 1; 0" begin="0s; t1.end+1s" dur="2s" keyTimes="0; .17; .83; 1" />
      </path>

      <animateTransform id="s1" attributeName="transform" type="translate" values="0 -36; 0 92" begin="0s; s1.end+1s" dur="2s" />
    </g>

    <g>
      <path d="M97.67,31l-5.78-3.3a13.74,13.74,0,0,0,0-6.47L97.67,18a4,4,0,0,0,1.49-5.46A4.08,4.08,0,0,0,93.62,11l-5.79,3.3a13.61,13.61,0,0,0-2.64-2,13.84,13.84,0,0,0-3-1.28V4.5a4.05,4.05,0,0,0-8.1,0v6.6a14.25,14.25,0,0,0-5.69,3.23L62.58,11A4.08,4.08,0,0,0,57,12.5,4,4,0,0,0,58.53,18l5.78,3.3a13.74,13.74,0,0,0,0,6.47L58.53,31A4,4,0,0,0,57,36.5a4.08,4.08,0,0,0,3.52,2,4,4,0,0,0,2-.54l5.79-3.3a13.61,13.61,0,0,0,2.64,2,13.8,13.8,0,0,0,3,1.27V44.5a4.05,4.05,0,0,0,8.1,0V37.89a14.22,14.22,0,0,0,5.68-3.23L93.62,38a4,4,0,0,0,2,.54,4.08,4.08,0,0,0,3.52-2A4,4,0,0,0,97.67,31ZM75.06,29.7a6,6,0,0,1-2.22-8.2,6.1,6.1,0,0,1,5.27-3,6.16,6.16,0,0,1,3,.8,6,6,0,0,1,2.22,8.2A6.12,6.12,0,0,1,75.06,29.7 Z" stroke="#86c3db" stroke-miterlimit="10" fill="url(#snowGradient2)" opacity="0">
        <animateTransform attributeName="transform" type="rotate" values="0 80 24; 360 80 24" dur="6s" repeatCount="indefinite" />
        <animate id="t2" attributeName="opacity" values="0; 1; 1; 0" begin="-.83s; t2.end+1s" dur="2s" keyTimes="0; .17; .83; 1" />
      </path>

      <animateTransform id="s2" attributeName="transform" type="translate" values="0 -36; 0 92" begin="-.83s; s2.end+1s" dur="2s" />
    </g>

    <g>
      <path d="M153.67,31l-5.78-3.3a13.74,13.74,0,0,0,0-6.47L153.67,18a4,4,0,0,0,1.49-5.46A4.08,4.08,0,0,0,149.62,11l-5.79,3.3a13.61,13.61,0,0,0-2.64-2,13.84,13.84,0,0,0-3-1.28V4.5a4.05,4.05,0,0,0-8.1,0v6.6a14.25,14.25,0,0,0-5.69,3.23L118.58,11A4.08,4.08,0,0,0,113,12.5,4,4,0,0,0,114.53,18l5.78,3.3a13.74,13.74,0,0,0,0,6.47L114.53,31A4,4,0,0,0,113,36.5a4.08,4.08,0,0,0,3.52,2,4,4,0,0,0,2-.54l5.79-3.3a13.61,13.61,0,0,0,2.64,2,13.8,13.8,0,0,0,3,1.27V44.5a4.05,4.05,0,0,0,8.1,0V37.89a14.22,14.22,0,0,0,5.68-3.23l5.79,3.3a4,4,0,0,0,2,.54,4.08,4.08,0,0,0,3.52-2A4,4,0,0,0,153.67,31ZM131.06,29.7a6,6,0,0,1-2.22-8.2,6.1,6.1,0,0,1,5.27-3,6.16,6.16,0,0,1,3,.8,6,6,0,0,1,2.22,8.2A6.12,6.12,0,0,1,131.06,29.7 Z" stroke="#86c3db" stroke-miterlimit="10" fill="url(#snowGradient3)" opacity="0">
        <animateTransform attributeName="transform" type="rotate" values="0 136 24; 360 136 24" dur="6s" repeatCount="indefinite" />
        <animate id="t3" attributeName="opacity" values="0; 1; 1; 0" begin=".83s; t3.end+1s" dur="2s" keyTimes="0; .17; .83; 1" />
      </path>

      <animateTransform id="s3" attributeName="transform" type="translate" values="0 -36; 0 92" begin=".83s; s3.end+1s" dur="2s" />
    </g>
  </g>

  <g transform="translate(191.5 343.5)">
    <path d="M8.5,56.5a8,8,0,0,1-8-8V8.5a8,8,0,0,1,16,0v40A8,8,0,0,1,8.5,56.5 Z" fill="url(#dropGradient1)" stroke="#0a5ad4" opacity="0">
      <animateTransform id="r1" attributeName="transform" type="translate" values="0 -60; 0 60" begin="0s; r1.end+.33s" dur=".67s" />
      <animate id="o1" attributeName="opacity" values="0; 1; 0" keyTimes="0; .25; 1" begin="0s; o1.end+.33s" dur=".67s" />
    </path>

    <path d="M64.5,56.5a8,8,0,0,1-8-8V8.5a8,8,0,0,1,16,0v40A8,8,0,0,1,64.5,56.5 Z" fill="url(#dropGradient2)" stroke="#0a5ad4" opacity="0">
      <animateTransform id="r2" attributeName="transform" type="translate" values="0 -60; 0 60" begin=".33s; r2.end+.33s" dur=".67s" />
      <animate id="o2" attributeName="opacity" values="0; 1; 0" keyTimes="0; .25; 1" begin=".33s; o2.end+.33s" dur=".67s" />
    </path>

    <path d="M120.5,56.5a8,8,0,0,1-8-8V8.5a8,8,0,0,1,16,0v40A8,8,0,0,1,120.5,56.5 Z" fill="url(#dropGradient3)" stroke="#0a5ad4" opacity="0">
      <animateTransform id="r3" attributeName="transform" type="translate" values="0 -60; 0 60" begin="-.33s; r3.end+.33s" dur=".67s" />
      <animate id="o3" attributeName="opacity" values="0; 1; 0" keyTimes="0; .25; 1" begin="-.33s; o3.end+.33s" dur=".67s" />
    </path>
  </g>
</svg>
